PathFileType   4   (X/Y/Z)
DataRate	CameraRate	NumFrames	NumMarkers	Units	OrigDataRate	OrigDataStartFrame	OrigNumFrames
120.0	120.0	8	37	mm	120.0	92	122
Frame#	Time	midhip	hip_r	hip_l	knee_r	knee_l	ankle_r	ankle_l	midasis	asis_r	asis_l	psis_r	psis_l	epicondLat_r	epicondLat_l	epicondMed_r	epicondMed_l	malleolusLat_r	malleolusLat_l	malleolusMedv_r	malleolusMedv_l	neck	subclavicle_r	subclavicle_l	sternalnotch	xyphoidprocess	thighwand_r	thighwand_l	upperleg1_r	upperleg1_l	upperleg2_r	upperleg2_l	shankwand_r	shankwand_l	lowerleg1_r	lowerleg1_l	toe_r	toe_l
 	 	X1	Y1	Z1	X2	Y2	Z2	X3	Y3	Z3	X4	Y4	Z4	X5	Y5	Z5	X6	Y6	Z6	X7	Y7	Z7	X8	Y8	Z8	X9	Y9	Z9	X10	Y10	Z10	X11	Y11	Z11	X12	Y12	Z12	X13	Y13	Z13	X14	Y14	Z14	X15	Y15	Z15	X16	Y16	Z16	X17	Y17	Z17	X18	Y18	Z18	X19	Y19	Z19	X20	Y20	Z20	X21	Y21	Z21	X22	Y22	Z22	X23	Y23	Z23	X24	Y24	Z24	X25	Y25	Z25	X26	Y26	Z26	X27	Y27	Z27	X28	Y28	Z28	X29	Y29	Z29	X30	Y30	Z30	X31	Y31	Z31	X32	Y32	Z32	X33	Y33	Z33	X34	Y34	Z34	X35	Y35	Z35	X36	Y36	Z36	X37	Y37	Z37

	92	0.86667	1961.501	691.086	-182.222	1957.464	698.580	-117.485	1955.348	695.131	-243.249	1977.296	384.887	-157.232	2070.416	392.169	-256.755	1923.640	56.209	-167.026	1910.869	121.230	-253.994	2021.384	761.036	-183.220	2022.955	763.597	-89.833	2019.813	758.475	-276.607	1875.070	799.503	-163.531	1873.077	791.877	-218.295	1978.270	378.600	-107.134	2065.027	392.339	-306.463	1972.414	385.368	-204.842	2093.964	393.006	-203.773	1918.422	56.075	-133.935	1901.796	126.237	-286.901	1923.536	68.282	-193.193	1911.341	130.962	-225.385	1915.409	1146.408	-176.736	1997.977	1094.985	-120.536	1988.524	1101.271	-248.406	1987.121	1086.755	-187.182	2001.668	943.930	-194.504	1974.881	459.713	-18.260	2161.521	540.343	-300.834	2007.287	527.977	-77.604	2085.233	568.989	-237.197	2018.382	447.995	-101.528	2107.739	484.136	-232.251	1922.282	154.959	-56.847	2027.180	162.077	-306.333	1940.437	212.263	-113.483	2012.484	239.977	-278.791	2020.185	38.232	-166.268	1975.224	61.490	-266.614
	93	0.87500	1970.102	691.327	-182.548	1965.858	698.552	-117.731	1964.377	695.494	-243.514	1979.292	384.833	-157.223	2083.696	393.608	-256.065	1923.933	56.371	-167.245	1938.951	114.807	-254.124	2030.008	761.314	-182.949	2031.107	763.584	-89.563	2028.908	759.043	-276.336	1883.540	799.580	-164.127	1881.858	791.921	-218.922	1979.882	378.551	-107.119	2079.330	393.953	-305.873	1973.698	386.114	-205.376	2106.292	395.016	-202.910	1918.549	56.270	-134.180	1929.653	119.406	-287.027	1924.042	68.452	-193.548	1938.347	124.262	-225.473	1924.770	1146.733	-176.756	2007.266	1095.181	-120.579	1997.765	1101.434	-248.431	1996.392	1086.954	-187.201	2010.642	944.090	-194.482	1977.743	459.882	-18.317	2173.688	543.943	-297.596	2012.140	526.891	-77.473	2095.419	571.107	-235.185	2021.068	447.250	-101.593	2119.201	486.567	-230.385	1922.536	155.144	-57.043	2052.820	162.017	-306.139	1941.071	212.369	-113.767	2033.796	238.749	-278.308	2020.299	38.230	-166.258	2006.755	59.416	-266.877
	94	0.88333	1978.788	691.346	-182.889	1974.279	698.360	-117.981	1973.429	695.626	-243.777	1981.284	384.738	-157.225	2096.570	394.729	-255.343	1924.238	56.542	-167.513	1967.429	108.489	-254.223	2038.655	761.390	-182.717	2039.286	763.420	-89.332	2038.023	759.360	-276.101	1892.090	799.445	-164.798	1890.693	791.757	-219.600	1981.571	378.474	-107.116	2093.044	395.202	-305.216	1975.073	386.516	-205.580	2118.337	396.606	-202.079	1918.705	56.468	-134.473	1957.894	112.662	-287.116	1924.630	68.619	-193.911	1965.804	117.554	-225.520	1934.070	1146.822	-176.833	2016.550	1095.163	-120.636	2006.992	1101.409	-248.508	2005.658	1086.953	-187.261	2019.699	944.057	-194.529	1980.825	460.018	-18.383	2185.334	546.892	-294.830	2016.514	526.283	-77.483	2105.488	572.711	-233.523	2023.777	446.479	-101.744	2130.404	488.502	-228.786	1922.857	155.319	-57.265	2078.396	162.173	-305.960	1941.815	212.514	-114.006	2054.766	237.570	-277.581	2020.425	38.229	-166.271	2038.437	57.663	-267.124
	95	0.89167	1987.564	691.144	-183.242	1982.730	698.006	-118.231	1982.508	695.525	-244.035	1983.292	384.603	-157.228	2109.070	395.522	-254.567	1924.550	56.721	-167.832	1996.252	102.386	-254.307	2047.330	761.264	-182.519	2047.495	763.105	-89.136	2047.165	759.422	-275.901	1900.724	799.102	-165.541	1899.586	791.389	-220.325	1983.359	378.367	-107.114	2106.174	396.053	-304.480	1976.803	386.570	-205.576	2130.101	397.751	-201.332	1918.886	56.668	-134.814	1986.477	106.119	-287.182	1924.894	68.801	-194.344	1994.186	110.770	-225.575	1943.413	1146.730	-176.901	2025.830	1094.983	-120.715	2016.252	1101.191	-248.549	2014.925	1086.754	-187.353	2028.755	943.843	-194.532	1984.144	460.107	-18.447	2196.471	549.147	-292.616	2020.596	525.912	-77.615	2115.506	573.824	-232.127	2026.656	445.732	-101.937	2141.378	489.922	-227.466	1923.249	155.483	-57.508	2103.845	162.592	-305.792	1942.531	212.619	-114.152	2075.797	236.308	-277.081	2020.561	38.223	-166.305	2070.215	56.327	-267.366
	96	0.90000	1996.419	690.726	-183.605	1991.211	697.493	-118.478	1991.615	695.195	-244.285	1985.340	384.434	-157.226	2121.218	395.986	-253.720	1924.860	56.912	-168.202	2025.364	96.609	-254.390	2056.037	760.937	-182.353	2055.737	762.642	-88.972	2056.338	759.231	-275.735	1909.428	798.559	-166.348	1908.542	790.823	-221.093	1985.263	378.232	-107.109	2118.732	396.483	-303.656	1979.230	386.504	-205.550	2141.680	398.463	-200.713	1919.082	56.873	-135.204	2015.349	99.889	-287.241	1924.762	69.016	-194.863	2023.273	104.352	-225.609	1952.765	1146.402	-176.934	2035.138	1094.623	-120.910	2025.538	1100.758	-248.654	2024.198	1086.356	-187.469	2037.912	943.434	-194.592	1987.706	460.134	-18.503	2207.121	550.678	-290.993	2024.982	525.455	-77.772	2125.458	574.477	-231.042	2029.964	445.061	-102.043	2152.173	490.829	-226.472	1923.707	155.641	-57.773	2129.101	163.323	-305.631	1943.277	212.688	-114.297	2097.164	234.966	-277.072	2020.704	38.209	-166.363	2102.018	55.494	-267.607
	97	0.90833	2005.321	690.107	-183.967	1999.722	696.826	-118.721	2000.754	694.642	-244.527	1987.452	384.240	-157.219	2133.035	396.119	-252.788	1925.161	57.118	-168.620	2054.695	91.265	-254.481	2064.781	760.413	-182.218	2064.015	762.034	-88.836	2065.547	758.792	-275.599	1918.178	797.832	-167.207	1917.564	790.068	-221.902	1987.300	378.073	-107.097	2130.737	396.483	-302.734	1982.394	386.351	-205.543	2153.048	398.797	-199.992	1919.281	57.088	-135.640	2044.441	94.082	-287.302	1924.859	69.230	-195.149	2052.426	98.733	-225.586	1962.096	1145.841	-176.980	2044.536	1094.064	-121.201	2034.766	1100.120	-248.828	2033.474	1085.763	-187.608	2047.159	942.828	-194.741	1991.506	460.088	-18.550	2217.309	551.474	-289.959	2029.561	524.938	-77.931	2135.352	574.672	-230.373	2033.697	444.533	-102.076	2162.794	491.238	-225.736	1924.221	155.802	-58.062	2154.092	164.410	-305.475	1944.182	212.803	-114.457	2118.641	233.688	-277.273	2020.847	38.186	-166.445	2133.760	55.239	-267.844
	98	0.91667	2014.231	689.304	-184.314	2008.267	696.011	-118.961	2009.928	693.876	-244.761	1989.652	384.032	-157.211	2144.534	395.930	-251.762	1925.448	57.347	-169.082	2084.161	86.459	-254.591	2073.566	759.699	-182.108	2072.333	761.283	-88.727	2074.799	758.115	-275.490	1926.944	796.941	-168.105	1926.658	789.130	-222.746	1989.483	377.897	-107.085	2142.217	396.057	-301.708	1985.853	386.056	-205.596	2164.026	398.732	-199.119	1919.472	57.324	-136.119	2073.673	88.805	-287.374	1925.303	69.420	-195.255	2081.599	93.500	-225.592	1971.417	1145.149	-177.095	2053.937	1093.322	-121.450	2043.955	1099.287	-248.902	2042.723	1084.978	-187.775	2056.297	942.026	-194.804	1995.532	459.963	-18.592	2227.071	551.539	-289.468	2033.621	524.445	-77.946	2145.230	574.406	-230.025	2037.507	443.980	-102.190	2173.174	491.139	-225.183	1924.775	155.976	-58.381	2178.743	165.892	-305.323	1945.243	212.913	-114.597	2139.577	232.458	-277.102	2020.987	38.153	-166.549	2165.342	55.622	-268.074
	99	0.92500	2023.122	688.336	-184.631	2016.851	695.052	-119.197	2019.145	692.907	-244.987	1991.964	383.820	-157.210	2155.723	395.430	-250.640	1925.719	57.610	-169.581	2113.665	82.288	-254.724	2082.399	758.802	-182.023	2080.697	760.394	-88.641	2084.102	757.210	-275.405	1935.703	795.903	-169.025	1935.825	788.017	-223.621	1991.821	377.709	-107.081	2153.205	395.223	-300.576	1989.526	385.406	-205.642	2174.589	398.232	-198.197	1919.648	57.593	-136.636	2102.948	84.155	-287.464	1925.798	69.581	-195.509	2110.942	88.690	-225.677	1980.724	1144.284	-177.306	2063.278	1092.341	-121.641	2053.198	1098.259	-248.973	2051.926	1084.009	-187.971	2065.380	941.008	-194.875	1999.764	459.756	-18.638	2236.442	550.896	-289.437	2037.053	523.795	-77.838	2155.014	573.673	-229.865	2041.319	443.327	-102.342	2183.255	490.546	-224.789	1925.356	156.179	-58.733	2202.974	167.802	-305.179	1946.365	212.924	-114.798	2159.956	231.344	-276.560	2021.116	38.113	-166.672	2196.655	56.681	-268.289
